<?xml version="1.0" encoding="utf-8"?>
<!-- Generator: Adobe Illustrator 24.0.2, SVG Export Plug-In . SVG Version: 6.00 Build 0)  -->
<svg version="1.1" id="Layer_1" xmlns="http://www.w3.org/2000/svg" xmlns:xlink="http://www.w3.org/1999/xlink" x="0px" y="0px"
	 viewBox="0 0 500 500" style="enable-background:new 0 0 500 500;" xml:space="preserve">
<style type="text/css">
	.st0{fill:#00181E;}
	.st1{fill:#61DAFB;}
</style>
<rect class="st0" width="500" height="500"/>
<g>
	<path class="st1" d="M446.3,249.7c0-26-32.6-50.6-82.5-65.9c11.5-50.9,6.4-91.4-16.2-104.3c-5.2-3-11.3-4.5-17.9-4.5v17.8
		c3.7,0,6.6,0.7,9.1,2.1c10.9,6.2,15.6,30,11.9,60.6c-0.9,7.5-2.3,15.4-4.1,23.5c-15.7-3.8-32.8-6.8-50.8-8.7
		c-10.8-14.8-22-28.2-33.3-40c26.1-24.2,50.6-37.5,67.2-37.5V74.9l0,0c-22,0-50.8,15.7-79.9,42.9c-29.1-27-57.9-42.6-79.9-42.6v17.8
		c16.6,0,41.1,13.2,67.2,37.3c-11.2,11.8-22.4,25.1-33,39.9c-18.1,1.9-35.2,4.9-50.9,8.8c-1.8-8-3.2-15.8-4.2-23.2
		c-3.8-30.6,0.9-54.3,11.7-60.6c2.4-1.4,5.5-2.1,9.2-2.1V75.3l0,0c-6.7,0-12.8,1.4-18.1,4.5c-22.5,13-27.5,53.4-15.9,104.1
		c-49.8,15.4-82.2,39.9-82.2,65.8c0,26,32.6,50.6,82.5,65.9c-11.5,50.9-6.4,91.4,16.2,104.3c5.2,3,11.3,4.5,18,4.5
		c22,0,50.8-15.7,79.9-42.9c29.1,27,57.9,42.6,79.9,42.6c6.7,0,12.8-1.4,18.1-4.5c22.5-13,27.5-53.4,15.9-104.1
		C413.9,300.3,446.3,275.7,446.3,249.7z M342.2,196.4c-3,10.3-6.6,21-10.8,31.6c-3.3-6.4-6.7-12.8-10.5-19.2
		c-3.7-6.4-7.6-12.6-11.5-18.7C320.7,191.7,331.7,193.8,342.2,196.4z M305.5,281.6c-6.2,10.8-12.6,21-19.3,30.6
		c-11.9,1-24,1.6-36.2,1.6c-12.1,0-24.2-0.6-36-1.5c-6.6-9.5-13.1-19.7-19.4-30.4c-6.1-10.5-11.6-21.1-16.6-31.8
		c5-10.7,10.6-21.4,16.6-31.9c6.2-10.8,12.6-21,19.3-30.6c11.9-1,24-1.6,36.2-1.6c12.1,0,24.2,0.6,36,1.5
		c6.6,9.5,13.1,19.7,19.4,30.4c6.1,10.5,11.6,21.1,16.6,31.8C317.1,260.4,311.5,271.1,305.5,281.6z M331.4,271.2
		c4.3,10.7,8,21.4,11,31.8c-10.5,2.6-21.5,4.7-33,6.4c3.9-6.2,7.8-12.5,11.5-19C324.7,284.1,328.1,277.6,331.4,271.2z M250.3,356.5
		c-7.4-7.7-14.9-16.2-22.2-25.6c7.2,0.3,14.6,0.6,22,0.6c7.5,0,15-0.2,22.2-0.6C265.1,340.3,257.6,348.9,250.3,356.5z M190.7,309.4
		c-11.4-1.7-22.3-3.8-32.8-6.3c3-10.3,6.6-21,10.8-31.6c3.3,6.4,6.7,12.8,10.5,19.2S186.8,303.3,190.7,309.4z M249.9,142.9
		c7.4,7.7,14.9,16.2,22.2,25.6c-7.2-0.3-14.6-0.6-22-0.6c-7.5,0-15,0.2-22.2,0.6C235.1,159.2,242.5,150.6,249.9,142.9z M190.7,190.1
		c-3.9,6.2-7.8,12.5-11.5,19c-3.7,6.4-7.1,12.8-10.4,19.2c-4.3-10.7-8-21.4-11-31.8C168.2,193.9,179.2,191.7,190.7,190.1z
		 M118.3,290.2c-28.3-12.1-46.6-27.9-46.6-40.5s18.3-28.5,46.6-40.5c6.9-3,14.4-5.6,22.2-8.1c4.6,15.7,10.6,32,18,48.7
		c-7.4,16.6-13.3,32.9-17.8,48.5C132.7,295.9,125.2,293.2,118.3,290.2z M161.3,404.5c-10.9-6.2-15.6-30-11.9-60.6
		c0.9-7.5,2.3-15.4,4.1-23.5c15.7,3.8,32.8,6.8,50.8,8.7c10.8,14.8,22,28.2,33.3,40c-26.1,24.2-50.6,37.5-67.2,37.5
		C166.7,406.6,163.7,405.9,161.3,404.5z M351.1,343.6c3.8,30.6-0.9,54.3-11.7,60.6c-2.4,1.4-5.5,2.1-9.2,2.1
		c-16.6,0-41.1-13.2-67.2-37.3c11.2-11.8,22.4-25.1,33-39.9c18.1-1.9,35.2-4.9,50.9-8.8C348.7,328.4,350.2,336.1,351.1,343.6z
		 M381.9,290.2c-6.9,3-14.4,5.6-22.2,8.1c-4.6-15.7-10.6-32-18-48.7c7.4-16.6,13.3-32.9,17.8-48.5c7.9,2.5,15.4,5.2,22.5,8.2
		c28.3,12.1,46.6,27.9,46.6,40.5C428.5,262.3,410.2,278.2,381.9,290.2z"/>
	<path class="st1" d="M169.9,75.3L169.9,75.3L169.9,75.3z"/>
	<circle class="st1" cx="250" cy="249.7" r="36.6"/>
	<path class="st1" d="M329.7,75L329.7,75L329.7,75z"/>
</g>
</svg>
