<svg version="1" xmlns="http://www.w3.org/2000/svg" width="1738.667" height="1738.667" viewBox="0 0 1304.000000 1304.000000"><path d="M172 1.3c-4.9 1.6-13.3 10.2-14.8 15.3-.9 3.1-1.2 25.9-1.2 92 0 86.3.1 88 2.1 92.4 2.5 5.5 6.2 9.5 11.4 12.3l4 2.2 123.3.3 123.2.2v780.6l2.8 5.5c3.3 6.6 9.3 11.3 16.2 12.8 7.1 1.5 210.9 1.5 218 0 6.4-1.4 12.7-6.1 16-11.9l2.5-4.5.3-391.3.2-391.2h216v366.2c0 238.3-.4 371.2-1 380.3-2.6 35.5-7.9 58.5-18.3 79-4.2 8.2-6.6 11.5-13.7 18.6-6.9 7-10.2 9.4-17.1 12.8-15 7.2-30.2 10.1-53.7 10.1-25 0-50.4-3.1-79.6-9.6-17.2-3.8-20.8-3.9-27.6-.4-5 2.6-10.5 9.1-11.9 14.3-.9 3.1-1.1 28.4-.9 94.8l.3 90.6 3 4.9c5.4 8.7 11 11.1 40 16.8 34.5 6.9 58.6 9.1 102.5 9 36.9 0 50.2-1 78.8-5.9 65.5-11.3 117.8-37.1 159.3-78.4 57.2-57.1 88.5-139.4 94.9-249.5 1.6-27.6 1.4-947.6-.2-953-1.6-5.5-9.9-13.8-15.4-15.4-5.7-1.7-954.1-1.6-959.4.1zm928 498.9c0 289.8-.4 458.2-1 468.8-7.9 131-54.5 216.6-140.4 258.1-43.4 20.9-93.9 30.1-157.6 28.6-32.3-.8-53.6-2.9-76.7-7.4l-8.3-1.6V1124l2.3.5c23.4 5.1 74.3 8.1 95.3 5.6 78.4-9.5 117.8-61 125.4-163.6 1.4-20 1.4-776.6-.1-781.9-1.5-5.5-8.9-13.1-14.6-15-4.1-1.4-19.7-1.6-140.3-1.6-121.4 0-136.1.2-140.3 1.6-6.1 2.1-13 9.6-14.6 15.8-.8 3.3-1.1 108.2-1.1 393.5V968H468V578.4c0-298.2-.3-390.6-1.2-393.6-.6-2.2-3.1-6.2-5.5-8.8-7.7-8.6 2.4-8-135.5-8H204V48h896v452.2z"/></svg>